<mxfile host="app.diagrams.net" modified="2024-03-23T15:31:34.820Z" agent="Mozilla/5.0 (Windows NT 10.0; Win64; x64) AppleWebKit/537.36 (KHTML, like Gecko) Chrome/123.0.0.0 Safari/537.36" etag="ju0MXG0lOBC8l7cYa3mi" version="24.0.8" type="device">
  <diagram name="PÃ¡gina-1" id="oTevz-IEbfKaYQHjwkaM">
    <mxGraphModel dx="1354" dy="1877" grid="1" gridSize="10" guides="1" tooltips="1" connect="1" arrows="1" fold="1" page="1" pageScale="1" pageWidth="827" pageHeight="1169" math="0" shadow="0">
      <root>
        <mxCell id="0" />
        <mxCell id="1" parent="0" />
        <mxCell id="wsST4d6V7Oona3q0oLoX-33" style="edgeStyle=orthogonalEdgeStyle;rounded=0;orthogonalLoop=1;jettySize=auto;html=1;exitX=0.5;exitY=0;exitDx=0;exitDy=0;strokeColor=default;align=center;verticalAlign=middle;fontFamily=Helvetica;fontSize=11;fontColor=default;labelBackgroundColor=default;endArrow=none;endFill=0;" parent="1" source="wsST4d6V7Oona3q0oLoX-1" target="wsST4d6V7Oona3q0oLoX-34" edge="1">
          <mxGeometry relative="1" as="geometry">
            <mxPoint x="159.99666666666675" y="120" as="targetPoint" />
          </mxGeometry>
        </mxCell>
        <mxCell id="wsST4d6V7Oona3q0oLoX-1" value="TORNEO" style="whiteSpace=wrap;html=1;align=center;" parent="1" vertex="1">
          <mxGeometry x="110.33000000000001" y="200" width="100" height="40" as="geometry" />
        </mxCell>
        <mxCell id="wsST4d6V7Oona3q0oLoX-6" style="edgeStyle=orthogonalEdgeStyle;rounded=0;orthogonalLoop=1;jettySize=auto;html=1;exitX=1;exitY=0.5;exitDx=0;exitDy=0;entryX=0;entryY=0.5;entryDx=0;entryDy=0;strokeColor=default;align=center;verticalAlign=middle;fontFamily=Helvetica;fontSize=11;fontColor=default;labelBackgroundColor=default;endArrow=none;endFill=0;" parent="1" source="wsST4d6V7Oona3q0oLoX-3" target="wsST4d6V7Oona3q0oLoX-4" edge="1">
          <mxGeometry relative="1" as="geometry" />
        </mxCell>
        <mxCell id="wsST4d6V7Oona3q0oLoX-3" value="TIENE_t" style="shape=rhombus;perimeter=rhombusPerimeter;whiteSpace=wrap;html=1;align=center;" parent="1" vertex="1">
          <mxGeometry x="270" y="190" width="120" height="60" as="geometry" />
        </mxCell>
        <mxCell id="5qk2XlMAOqjiseSBAxKV-2" style="edgeStyle=orthogonalEdgeStyle;rounded=0;orthogonalLoop=1;jettySize=auto;html=1;exitX=0.5;exitY=0;exitDx=0;exitDy=0;entryX=0.5;entryY=1;entryDx=0;entryDy=0;endArrow=none;endFill=0;" edge="1" parent="1" source="wsST4d6V7Oona3q0oLoX-4" target="wsST4d6V7Oona3q0oLoX-39">
          <mxGeometry relative="1" as="geometry" />
        </mxCell>
        <mxCell id="wsST4d6V7Oona3q0oLoX-4" value="TEMPORADA" style="whiteSpace=wrap;html=1;align=center;" parent="1" vertex="1">
          <mxGeometry x="430" y="200.20999999999998" width="150" height="40" as="geometry" />
        </mxCell>
        <mxCell id="wsST4d6V7Oona3q0oLoX-5" style="edgeStyle=orthogonalEdgeStyle;rounded=0;orthogonalLoop=1;jettySize=auto;html=1;exitX=1;exitY=0.5;exitDx=0;exitDy=0;entryX=0.067;entryY=0.5;entryDx=0;entryDy=0;entryPerimeter=0;endArrow=none;endFill=0;" parent="1" source="wsST4d6V7Oona3q0oLoX-1" target="wsST4d6V7Oona3q0oLoX-3" edge="1">
          <mxGeometry relative="1" as="geometry" />
        </mxCell>
        <mxCell id="wsST4d6V7Oona3q0oLoX-9" style="edgeStyle=orthogonalEdgeStyle;rounded=0;orthogonalLoop=1;jettySize=auto;html=1;exitX=0.5;exitY=1;exitDx=0;exitDy=0;strokeColor=default;align=center;verticalAlign=middle;fontFamily=Helvetica;fontSize=11;fontColor=default;labelBackgroundColor=default;endArrow=none;endFill=0;" parent="1" source="wsST4d6V7Oona3q0oLoX-8" target="wsST4d6V7Oona3q0oLoX-10" edge="1">
          <mxGeometry relative="1" as="geometry">
            <mxPoint x="820" y="440" as="targetPoint" />
          </mxGeometry>
        </mxCell>
        <mxCell id="5qk2XlMAOqjiseSBAxKV-3" style="edgeStyle=orthogonalEdgeStyle;rounded=0;orthogonalLoop=1;jettySize=auto;html=1;exitX=0.5;exitY=0;exitDx=0;exitDy=0;entryX=0.25;entryY=1;entryDx=0;entryDy=0;strokeColor=default;align=center;verticalAlign=middle;fontFamily=Helvetica;fontSize=11;fontColor=default;labelBackgroundColor=default;endArrow=none;endFill=0;" edge="1" parent="1" source="wsST4d6V7Oona3q0oLoX-8" target="wsST4d6V7Oona3q0oLoX-28">
          <mxGeometry relative="1" as="geometry" />
        </mxCell>
        <mxCell id="wsST4d6V7Oona3q0oLoX-8" value="TIENE_P" style="shape=rhombus;perimeter=rhombusPerimeter;whiteSpace=wrap;html=1;align=center;fontFamily=Helvetica;fontSize=11;fontColor=default;labelBackgroundColor=default;" parent="1" vertex="1">
          <mxGeometry x="660" y="290" width="100" height="60" as="geometry" />
        </mxCell>
        <mxCell id="wsST4d6V7Oona3q0oLoX-63" value="" style="edgeStyle=orthogonalEdgeStyle;rounded=0;orthogonalLoop=1;jettySize=auto;html=1;strokeColor=default;align=center;verticalAlign=middle;fontFamily=Helvetica;fontSize=11;fontColor=default;labelBackgroundColor=default;endArrow=none;endFill=0;" parent="1" source="wsST4d6V7Oona3q0oLoX-10" target="wsST4d6V7Oona3q0oLoX-62" edge="1">
          <mxGeometry relative="1" as="geometry" />
        </mxCell>
        <mxCell id="2dL1T5G1KkrOmdAmBgH--1" style="edgeStyle=orthogonalEdgeStyle;rounded=0;orthogonalLoop=1;jettySize=auto;html=1;exitX=0;exitY=0.25;exitDx=0;exitDy=0;endArrow=none;endFill=0;" parent="1" source="wsST4d6V7Oona3q0oLoX-10" target="2dL1T5G1KkrOmdAmBgH--2" edge="1">
          <mxGeometry relative="1" as="geometry">
            <mxPoint x="660" y="440.58823529411757" as="targetPoint" />
          </mxGeometry>
        </mxCell>
        <mxCell id="wsST4d6V7Oona3q0oLoX-10" value="PARTIDO" style="whiteSpace=wrap;html=1;align=center;fontFamily=Helvetica;fontSize=11;fontColor=default;labelBackgroundColor=default;" parent="1" vertex="1">
          <mxGeometry x="660" y="430" width="100" height="40" as="geometry" />
        </mxCell>
        <mxCell id="5qk2XlMAOqjiseSBAxKV-4" style="edgeStyle=orthogonalEdgeStyle;rounded=0;orthogonalLoop=1;jettySize=auto;html=1;exitX=0.5;exitY=0;exitDx=0;exitDy=0;entryX=0.75;entryY=1;entryDx=0;entryDy=0;strokeColor=default;align=center;verticalAlign=middle;fontFamily=Helvetica;fontSize=11;fontColor=default;labelBackgroundColor=default;endArrow=none;endFill=0;" edge="1" parent="1" source="wsST4d6V7Oona3q0oLoX-12" target="wsST4d6V7Oona3q0oLoX-28">
          <mxGeometry relative="1" as="geometry" />
        </mxCell>
        <mxCell id="wsST4d6V7Oona3q0oLoX-12" value="TIENE_C" style="shape=rhombus;perimeter=rhombusPerimeter;whiteSpace=wrap;html=1;align=center;fontFamily=Helvetica;fontSize=11;fontColor=default;labelBackgroundColor=default;" parent="1" vertex="1">
          <mxGeometry x="827" y="230" width="100" height="60" as="geometry" />
        </mxCell>
        <mxCell id="wsST4d6V7Oona3q0oLoX-13" style="edgeStyle=orthogonalEdgeStyle;rounded=0;orthogonalLoop=1;jettySize=auto;html=1;exitX=0.75;exitY=1;exitDx=0;exitDy=0;entryX=0.953;entryY=1.075;entryDx=0;entryDy=0;entryPerimeter=0;strokeColor=default;align=center;verticalAlign=middle;fontFamily=Helvetica;fontSize=11;fontColor=default;labelBackgroundColor=default;endArrow=none;endFill=0;" parent="1" source="wsST4d6V7Oona3q0oLoX-4" target="wsST4d6V7Oona3q0oLoX-4" edge="1">
          <mxGeometry relative="1" as="geometry" />
        </mxCell>
        <mxCell id="2dL1T5G1KkrOmdAmBgH--17" style="edgeStyle=orthogonalEdgeStyle;rounded=0;orthogonalLoop=1;jettySize=auto;html=1;exitX=0.5;exitY=1;exitDx=0;exitDy=0;entryX=0.5;entryY=0;entryDx=0;entryDy=0;strokeColor=default;align=center;verticalAlign=middle;fontFamily=Helvetica;fontSize=11;fontColor=default;labelBackgroundColor=default;endArrow=none;endFill=0;" parent="1" source="wsST4d6V7Oona3q0oLoX-14" target="2dL1T5G1KkrOmdAmBgH--16" edge="1">
          <mxGeometry relative="1" as="geometry" />
        </mxCell>
        <mxCell id="wsST4d6V7Oona3q0oLoX-14" value="COPA" style="whiteSpace=wrap;html=1;align=center;fontFamily=Helvetica;fontSize=11;fontColor=default;labelBackgroundColor=default;" parent="1" vertex="1">
          <mxGeometry x="840" y="330" width="100" height="40" as="geometry" />
        </mxCell>
        <mxCell id="wsST4d6V7Oona3q0oLoX-16" style="edgeStyle=orthogonalEdgeStyle;rounded=0;orthogonalLoop=1;jettySize=auto;html=1;exitX=0.5;exitY=1;exitDx=0;exitDy=0;entryX=0.395;entryY=0.05;entryDx=0;entryDy=0;entryPerimeter=0;strokeColor=default;align=center;verticalAlign=middle;fontFamily=Helvetica;fontSize=11;fontColor=default;labelBackgroundColor=default;endArrow=none;endFill=0;" parent="1" edge="1">
          <mxGeometry relative="1" as="geometry">
            <mxPoint x="875.75" y="290" as="sourcePoint" />
            <mxPoint x="878.25" y="332" as="targetPoint" />
            <Array as="points">
              <mxPoint x="876" y="291" />
              <mxPoint x="878" y="291" />
              <mxPoint x="878" y="311" />
            </Array>
          </mxGeometry>
        </mxCell>
        <mxCell id="wsST4d6V7Oona3q0oLoX-21" style="edgeStyle=orthogonalEdgeStyle;rounded=0;orthogonalLoop=1;jettySize=auto;html=1;exitX=1;exitY=0.5;exitDx=0;exitDy=0;strokeColor=default;align=center;verticalAlign=middle;fontFamily=Helvetica;fontSize=11;fontColor=default;labelBackgroundColor=default;endArrow=none;endFill=0;" parent="1" source="wsST4d6V7Oona3q0oLoX-20" target="wsST4d6V7Oona3q0oLoX-22" edge="1">
          <mxGeometry relative="1" as="geometry">
            <mxPoint x="1340" y="240" as="targetPoint" />
          </mxGeometry>
        </mxCell>
        <mxCell id="wsST4d6V7Oona3q0oLoX-25" style="edgeStyle=orthogonalEdgeStyle;rounded=0;orthogonalLoop=1;jettySize=auto;html=1;exitX=0.5;exitY=0;exitDx=0;exitDy=0;strokeColor=default;align=center;verticalAlign=middle;fontFamily=Helvetica;fontSize=11;fontColor=default;labelBackgroundColor=default;endArrow=none;endFill=0;" parent="1" source="wsST4d6V7Oona3q0oLoX-20" target="wsST4d6V7Oona3q0oLoX-26" edge="1">
          <mxGeometry relative="1" as="geometry">
            <mxPoint x="1180" y="160" as="targetPoint" />
          </mxGeometry>
        </mxCell>
        <mxCell id="wsST4d6V7Oona3q0oLoX-20" value="EQUIPO" style="whiteSpace=wrap;html=1;align=center;fontFamily=Helvetica;fontSize=11;fontColor=default;labelBackgroundColor=default;" parent="1" vertex="1">
          <mxGeometry x="1130" y="220.21052631578948" width="100" height="40" as="geometry" />
        </mxCell>
        <mxCell id="wsST4d6V7Oona3q0oLoX-23" style="edgeStyle=orthogonalEdgeStyle;rounded=0;orthogonalLoop=1;jettySize=auto;html=1;exitX=1;exitY=0.5;exitDx=0;exitDy=0;strokeColor=default;align=center;verticalAlign=middle;fontFamily=Helvetica;fontSize=11;fontColor=default;labelBackgroundColor=default;endArrow=none;endFill=0;" parent="1" source="wsST4d6V7Oona3q0oLoX-22" target="wsST4d6V7Oona3q0oLoX-24" edge="1">
          <mxGeometry relative="1" as="geometry">
            <mxPoint x="1480" y="240" as="targetPoint" />
          </mxGeometry>
        </mxCell>
        <mxCell id="wsST4d6V7Oona3q0oLoX-22" value="POSEE" style="shape=rhombus;perimeter=rhombusPerimeter;whiteSpace=wrap;html=1;align=center;fontFamily=Helvetica;fontSize=11;fontColor=default;labelBackgroundColor=default;" parent="1" vertex="1">
          <mxGeometry x="1280" y="210" width="120" height="60" as="geometry" />
        </mxCell>
        <mxCell id="wsST4d6V7Oona3q0oLoX-24" value="JUGADOR" style="whiteSpace=wrap;html=1;align=center;fontFamily=Helvetica;fontSize=11;fontColor=default;labelBackgroundColor=default;" parent="1" vertex="1">
          <mxGeometry x="1460" y="220.21" width="100" height="40" as="geometry" />
        </mxCell>
        <mxCell id="wsST4d6V7Oona3q0oLoX-27" style="edgeStyle=orthogonalEdgeStyle;rounded=0;orthogonalLoop=1;jettySize=auto;html=1;exitX=0.5;exitY=0;exitDx=0;exitDy=0;strokeColor=default;align=center;verticalAlign=middle;fontFamily=Helvetica;fontSize=11;fontColor=default;labelBackgroundColor=default;endArrow=none;endFill=0;entryX=0.5;entryY=1;entryDx=0;entryDy=0;" parent="1" source="wsST4d6V7Oona3q0oLoX-26" target="wsST4d6V7Oona3q0oLoX-31" edge="1">
          <mxGeometry relative="1" as="geometry">
            <mxPoint x="1180" y="90" as="targetPoint" />
          </mxGeometry>
        </mxCell>
        <mxCell id="wsST4d6V7Oona3q0oLoX-26" value="PERTENECEN" style="shape=rhombus;perimeter=rhombusPerimeter;whiteSpace=wrap;html=1;align=center;fontFamily=Helvetica;fontSize=11;fontColor=default;labelBackgroundColor=default;" parent="1" vertex="1">
          <mxGeometry x="1120" y="10" width="120" height="60" as="geometry" />
        </mxCell>
        <mxCell id="wsST4d6V7Oona3q0oLoX-29" style="edgeStyle=orthogonalEdgeStyle;rounded=0;orthogonalLoop=1;jettySize=auto;html=1;strokeColor=default;align=center;verticalAlign=middle;fontFamily=Helvetica;fontSize=11;fontColor=default;labelBackgroundColor=default;endArrow=none;endFill=0;" parent="1" source="wsST4d6V7Oona3q0oLoX-28" target="wsST4d6V7Oona3q0oLoX-30" edge="1">
          <mxGeometry relative="1" as="geometry">
            <mxPoint x="1180.294117647059" y="20" as="targetPoint" />
          </mxGeometry>
        </mxCell>
        <mxCell id="wsST4d6V7Oona3q0oLoX-28" value="CATEGORIA" style="whiteSpace=wrap;html=1;align=center;fontFamily=Helvetica;fontSize=11;fontColor=default;labelBackgroundColor=default;" parent="1" vertex="1">
          <mxGeometry x="680" width="100" height="40" as="geometry" />
        </mxCell>
        <mxCell id="wsST4d6V7Oona3q0oLoX-32" value="" style="edgeStyle=orthogonalEdgeStyle;rounded=0;orthogonalLoop=1;jettySize=auto;html=1;strokeColor=default;align=center;verticalAlign=middle;fontFamily=Helvetica;fontSize=11;fontColor=default;labelBackgroundColor=default;endArrow=none;endFill=0;" parent="1" source="wsST4d6V7Oona3q0oLoX-30" target="wsST4d6V7Oona3q0oLoX-31" edge="1">
          <mxGeometry relative="1" as="geometry">
            <Array as="points">
              <mxPoint x="930" y="-110" />
            </Array>
          </mxGeometry>
        </mxCell>
        <mxCell id="wsST4d6V7Oona3q0oLoX-30" value="TIENE_CAT" style="shape=rhombus;perimeter=rhombusPerimeter;whiteSpace=wrap;html=1;align=center;fontFamily=Helvetica;fontSize=11;fontColor=default;labelBackgroundColor=default;" parent="1" vertex="1">
          <mxGeometry x="870.004117647059" y="-10" width="120" height="60" as="geometry" />
        </mxCell>
        <mxCell id="wsST4d6V7Oona3q0oLoX-31" value="ZONA" style="whiteSpace=wrap;html=1;fontSize=11;labelBackgroundColor=default;" parent="1" vertex="1">
          <mxGeometry x="1120.29" y="-130" width="120" height="40" as="geometry" />
        </mxCell>
        <mxCell id="wsST4d6V7Oona3q0oLoX-35" style="edgeStyle=orthogonalEdgeStyle;rounded=0;orthogonalLoop=1;jettySize=auto;html=1;exitX=0.5;exitY=0;exitDx=0;exitDy=0;strokeColor=default;align=center;verticalAlign=middle;fontFamily=Helvetica;fontSize=11;fontColor=default;labelBackgroundColor=default;endArrow=none;endFill=0;" parent="1" source="wsST4d6V7Oona3q0oLoX-34" target="wsST4d6V7Oona3q0oLoX-36" edge="1">
          <mxGeometry relative="1" as="geometry">
            <mxPoint x="159.99666666666675" y="40" as="targetPoint" />
          </mxGeometry>
        </mxCell>
        <mxCell id="wsST4d6V7Oona3q0oLoX-34" value="PERTENECE" style="shape=rhombus;perimeter=rhombusPerimeter;whiteSpace=wrap;html=1;align=center;fontFamily=Helvetica;fontSize=11;fontColor=default;labelBackgroundColor=default;" parent="1" vertex="1">
          <mxGeometry x="99.99666666666675" y="90" width="120" height="60" as="geometry" />
        </mxCell>
        <mxCell id="wsST4d6V7Oona3q0oLoX-36" value="USUARIO" style="whiteSpace=wrap;html=1;align=center;fontFamily=Helvetica;fontSize=11;fontColor=default;labelBackgroundColor=default;" parent="1" vertex="1">
          <mxGeometry x="109.99666666666675" y="20" width="100" height="40" as="geometry" />
        </mxCell>
        <mxCell id="wsST4d6V7Oona3q0oLoX-40" style="edgeStyle=orthogonalEdgeStyle;rounded=0;orthogonalLoop=1;jettySize=auto;html=1;exitX=0.5;exitY=0;exitDx=0;exitDy=0;strokeColor=default;align=center;verticalAlign=middle;fontFamily=Helvetica;fontSize=11;fontColor=default;labelBackgroundColor=default;endArrow=none;endFill=0;entryX=0;entryY=0.5;entryDx=0;entryDy=0;" parent="1" source="wsST4d6V7Oona3q0oLoX-39" target="wsST4d6V7Oona3q0oLoX-28" edge="1">
          <mxGeometry relative="1" as="geometry">
            <mxPoint x="1040" y="89.99999999999977" as="targetPoint" />
            <Array as="points">
              <mxPoint x="505" y="20" />
            </Array>
          </mxGeometry>
        </mxCell>
        <mxCell id="wsST4d6V7Oona3q0oLoX-39" value="POSEE_CAT" style="shape=rhombus;perimeter=rhombusPerimeter;whiteSpace=wrap;html=1;align=center;fontFamily=Helvetica;fontSize=11;fontColor=default;labelBackgroundColor=default;" parent="1" vertex="1">
          <mxGeometry x="445" y="59.99999999999977" width="120" height="60" as="geometry" />
        </mxCell>
        <mxCell id="wsST4d6V7Oona3q0oLoX-67" style="edgeStyle=orthogonalEdgeStyle;rounded=0;orthogonalLoop=1;jettySize=auto;html=1;exitX=1;exitY=0.5;exitDx=0;exitDy=0;entryX=0.75;entryY=1;entryDx=0;entryDy=0;strokeColor=default;align=center;verticalAlign=middle;fontFamily=Helvetica;fontSize=11;fontColor=default;labelBackgroundColor=default;endArrow=none;endFill=0;" parent="1" source="wsST4d6V7Oona3q0oLoX-62" target="wsST4d6V7Oona3q0oLoX-20" edge="1">
          <mxGeometry relative="1" as="geometry">
            <Array as="points">
              <mxPoint x="1205" y="670" />
            </Array>
          </mxGeometry>
        </mxCell>
        <mxCell id="wsST4d6V7Oona3q0oLoX-62" value="JUEGAN" style="rhombus;whiteSpace=wrap;html=1;fontSize=11;labelBackgroundColor=default;" parent="1" vertex="1">
          <mxGeometry x="670" y="630" width="80" height="80" as="geometry" />
        </mxCell>
        <mxCell id="2dL1T5G1KkrOmdAmBgH--8" value="" style="edgeStyle=orthogonalEdgeStyle;rounded=0;orthogonalLoop=1;jettySize=auto;html=1;strokeColor=default;align=center;verticalAlign=middle;fontFamily=Helvetica;fontSize=11;fontColor=default;labelBackgroundColor=default;endArrow=none;endFill=0;" parent="1" source="2dL1T5G1KkrOmdAmBgH--2" target="2dL1T5G1KkrOmdAmBgH--7" edge="1">
          <mxGeometry relative="1" as="geometry" />
        </mxCell>
        <mxCell id="2dL1T5G1KkrOmdAmBgH--2" value="TIENE_F&lt;div&gt;&lt;br&gt;&lt;/div&gt;" style="rhombus;whiteSpace=wrap;html=1;fontFamily=Helvetica;fontSize=11;fontColor=default;labelBackgroundColor=default;" parent="1" vertex="1">
          <mxGeometry x="540" y="399.99823529411753" width="80" height="80" as="geometry" />
        </mxCell>
        <mxCell id="2dL1T5G1KkrOmdAmBgH--23" style="edgeStyle=orthogonalEdgeStyle;rounded=0;orthogonalLoop=1;jettySize=auto;html=1;exitX=0.5;exitY=1;exitDx=0;exitDy=0;strokeColor=default;align=center;verticalAlign=middle;fontFamily=Helvetica;fontSize=11;fontColor=default;labelBackgroundColor=default;endArrow=none;endFill=0;entryX=0;entryY=0.5;entryDx=0;entryDy=0;" parent="1" source="2dL1T5G1KkrOmdAmBgH--7" target="2dL1T5G1KkrOmdAmBgH--24" edge="1">
          <mxGeometry relative="1" as="geometry">
            <mxPoint x="1060" y="1036.1538461538462" as="targetPoint" />
          </mxGeometry>
        </mxCell>
        <mxCell id="2dL1T5G1KkrOmdAmBgH--7" value="FICHA" style="whiteSpace=wrap;html=1;fontSize=11;labelBackgroundColor=default;" parent="1" vertex="1">
          <mxGeometry x="360" y="420" width="120" height="40" as="geometry" />
        </mxCell>
        <mxCell id="2dL1T5G1KkrOmdAmBgH--15" value="(tipo , minuto , tiempo)" style="text;html=1;align=center;verticalAlign=middle;resizable=0;points=[];autosize=1;strokeColor=none;fillColor=none;fontFamily=Helvetica;fontSize=11;fontColor=default;labelBackgroundColor=default;" parent="1" vertex="1">
          <mxGeometry x="335" y="388" width="130" height="30" as="geometry" />
        </mxCell>
        <mxCell id="2dL1T5G1KkrOmdAmBgH--18" style="edgeStyle=orthogonalEdgeStyle;rounded=0;orthogonalLoop=1;jettySize=auto;html=1;exitX=0.5;exitY=1;exitDx=0;exitDy=0;strokeColor=default;align=center;verticalAlign=middle;fontFamily=Helvetica;fontSize=11;fontColor=default;labelBackgroundColor=default;endArrow=none;endFill=0;" parent="1" source="2dL1T5G1KkrOmdAmBgH--16" target="2dL1T5G1KkrOmdAmBgH--19" edge="1">
          <mxGeometry relative="1" as="geometry">
            <mxPoint x="924.5652173913045" y="620" as="targetPoint" />
          </mxGeometry>
        </mxCell>
        <mxCell id="2dL1T5G1KkrOmdAmBgH--16" value="HAy" style="rhombus;whiteSpace=wrap;html=1;fontFamily=Helvetica;fontSize=11;fontColor=default;labelBackgroundColor=default;" parent="1" vertex="1">
          <mxGeometry x="850" y="410" width="80" height="70" as="geometry" />
        </mxCell>
        <mxCell id="5qk2XlMAOqjiseSBAxKV-5" style="edgeStyle=orthogonalEdgeStyle;rounded=0;orthogonalLoop=1;jettySize=auto;html=1;exitX=0.5;exitY=1;exitDx=0;exitDy=0;strokeColor=default;align=center;verticalAlign=middle;fontFamily=Helvetica;fontSize=11;fontColor=default;labelBackgroundColor=default;endArrow=none;endFill=0;" edge="1" parent="1" source="2dL1T5G1KkrOmdAmBgH--19" target="2dL1T5G1KkrOmdAmBgH--22">
          <mxGeometry relative="1" as="geometry" />
        </mxCell>
        <mxCell id="2dL1T5G1KkrOmdAmBgH--19" value="FASE" style="rounded=0;whiteSpace=wrap;html=1;fontFamily=Helvetica;fontSize=11;fontColor=default;labelBackgroundColor=default;" parent="1" vertex="1">
          <mxGeometry x="837" y="530" width="104.57" height="30" as="geometry" />
        </mxCell>
        <mxCell id="5qk2XlMAOqjiseSBAxKV-6" style="edgeStyle=orthogonalEdgeStyle;rounded=0;orthogonalLoop=1;jettySize=auto;html=1;exitX=0;exitY=0.5;exitDx=0;exitDy=0;entryX=1;entryY=0.5;entryDx=0;entryDy=0;strokeColor=default;align=center;verticalAlign=middle;fontFamily=Helvetica;fontSize=11;fontColor=default;labelBackgroundColor=default;endArrow=none;endFill=0;" edge="1" parent="1" source="2dL1T5G1KkrOmdAmBgH--22" target="wsST4d6V7Oona3q0oLoX-10">
          <mxGeometry relative="1" as="geometry">
            <Array as="points">
              <mxPoint x="804" y="610" />
              <mxPoint x="804" y="450" />
            </Array>
          </mxGeometry>
        </mxCell>
        <mxCell id="2dL1T5G1KkrOmdAmBgH--22" value="JUEGAN_c" style="rhombus;whiteSpace=wrap;html=1;fontSize=11;labelBackgroundColor=default;" parent="1" vertex="1">
          <mxGeometry x="847" y="570" width="80" height="80" as="geometry" />
        </mxCell>
        <mxCell id="2dL1T5G1KkrOmdAmBgH--25" style="edgeStyle=orthogonalEdgeStyle;rounded=0;orthogonalLoop=1;jettySize=auto;html=1;exitX=1;exitY=0.5;exitDx=0;exitDy=0;entryX=0.5;entryY=1;entryDx=0;entryDy=0;strokeColor=default;align=center;verticalAlign=middle;fontFamily=Helvetica;fontSize=11;fontColor=default;labelBackgroundColor=default;endArrow=none;endFill=0;" parent="1" source="2dL1T5G1KkrOmdAmBgH--24" target="wsST4d6V7Oona3q0oLoX-24" edge="1">
          <mxGeometry relative="1" as="geometry" />
        </mxCell>
        <mxCell id="2dL1T5G1KkrOmdAmBgH--24" value="&lt;div&gt;INVOLUCRA&lt;/div&gt;" style="rhombus;whiteSpace=wrap;html=1;fontFamily=Helvetica;fontSize=11;fontColor=default;labelBackgroundColor=default;" parent="1" vertex="1">
          <mxGeometry x="1240" y="709.9982352941175" width="80" height="80" as="geometry" />
        </mxCell>
      </root>
    </mxGraphModel>
  </diagram>
</mxfile>
